<svg xmlns="http://www.w3.org/2000/svg" version="1.1" xmlns:xlink="http://www.w3.org/1999/xlink" xmlns:svgjs="http://svgjs.dev/svgjs" width="2000" height="1500" viewBox="0 0 2000 1500"><rect width="2000" height="1500" fill="#edeae0"></rect><g transform="matrix(0.4444444444444444,0,0,0.4444444444444444,555.5557073912273,250)"><svg viewBox="0 0 320 360" data-background-color="#edeae0" preserveAspectRatio="xMidYMid meet" height="2250" width="2000" xmlns="http://www.w3.org/2000/svg" xmlns:xlink="http://www.w3.org/1999/xlink"><g id="tight-bounds" transform="matrix(1,0,0,1,0.00005466084189720277,0)"><svg viewBox="0 0 320 360" height="360" width="320"><g><svg></svg></g><g><svg viewBox="0 0 320 360" height="360" width="320"><g><path transform="translate(-119.39272,-98.31927) scale(5.58313,5.58313)" d="M36.7 23.5c0-0.2 0.1-0.4 0.3-0.4 0.2 0 0.4 0.1 0.4 0.4 0.1 0 0.3 0 0.4-0.1 0.4 0 0.8-0.1 1.1 0 0.3 0.1 0.5 0.1 0.8 0.2 0.3 0.1 0.5 0 0.7-0.1 0.4-0.1 0.7-0.3 1.1-0.4 0.2-0.1 0.3-0.1 0.5-0.1 0.2-0.1 0.4-0.1 0.7-0.2 0.5-0.1 1-0.2 1.4-0.4 0.4-0.2 0.8-0.2 1.2-0.3 0.2 0 0.3-0.1 0.5-0.2 0.1 0 0.1-0.1 0.2-0.2 0.2-0.1 0.3-0.2 0.5-0.1 0.1 0.1 0.3 0.1 0.4 0h0.1c0.6 0 1.2-0.1 1.9 0 0.1 0 0.2 0 0.2 0 0.3-0.2 0.7-0.2 1.1-0.2 0.1 0 0.3 0 0.4 0h0.1c0.4 0 0.8 0 1.1 0.1 0.3 0 0.5 0.1 0.8 0.2 0.3 0 0.5 0 0.8 0.1 0.2 0 0.4 0 0.6 0 0.1 0 0.2 0 0.2 0 0.4 0.1 0.8 0.1 1.2 0.1 0.3 0.1 0.6 0.2 1 0.2 0.1 0 0.2 0 0.3 0 0.1 0 0.2 0.1 0.3 0.1l0.1 0.1c0.4 0 0.7 0.2 1.1 0.2 0.1 0 0.3 0 0.4 0.1 0.3 0.2 0.7 0.3 1.1 0.3 0.2 0 0.3 0.1 0.4 0.2 0.3 0.1 0.5 0.2 0.8 0.3 0.2 0.1 0.4 0 0.6 0.1 0.3 0.1 0.7 0.2 1 0.5 0.2 0.2 0.4 0.2 0.7 0.4 0.1 0 0.2 0.1 0.3 0.2 0.3 0.2 0.6 0.4 0.9 0.5 0.1 0 0.2 0.1 0.3 0.1 0.3 0.2 0.6 0.5 1 0.7 0.2 0.1 0.3 0.2 0.5 0.3h0.1c0.3 0.3 0.7 0.5 1 0.8 0.3 0.3 0.5 0.5 0.9 0.7 0 0 0 0 0 0.1 0.1 0.2 0.2 0.3 0.4 0.4 0.2 0.1 0.3 0.2 0.4 0.3 0.3 0.2 0.6 0.4 0.8 0.6 0.1 0.1 0.2 0.2 0.4 0.4 0.1 0.1 0.2 0.2 0.3 0.2 0.4 0.1 0.6 0.4 0.9 0.7 0.2 0.2 0.5 0.5 0.7 0.7 0.1 0.1 0.2 0.3 0.3 0.5 0.2 0.6 0.5 1.2 0.8 1.7 0 0 0 0.1 0.1 0.2v0.1c0.2 0.2 0.3 0.5 0.5 0.7 0.1 0.1 0.1 0.2 0.2 0.3 0.2 0.3 0.3 0.7 0.5 1 0.3 0.5 0.5 1 0.7 1.5v0.1c0.1 0.2 0.2 0.4 0.3 0.7 0 0.2 0.2 0.4 0.3 0.7 0.1 0.5 0.4 1 0.5 1.6 0 0.1 0.1 0.2 0.1 0.4 0.1 0.3 0.2 0.6 0.3 0.9 0 0.1 0.1 0.2 0.2 0.3 0.2 0.2 0.2 0.4 0.2 0.6-0.1 0.4 0 0.8 0.1 1.2 0 0.1 0 0.2 0 0.4 0.1 0.4 0.2 0.9 0.2 1.3 0 0.1 0 0.3 0 0.4 0 0.3 0.1 0.6 0.3 0.9 0 0.1 0.1 0.1 0.1 0.1 0.1 0.1 0.2 0.3 0.3 0.4 0.1 0.1 0.1 0.1 0.2 0.2 0.2 0.2 0.3 0.4 0.3 0.7 0 0.1-0.1 0.3-0.1 0.4 0 0.1 0 0.3 0.1 0.4 0.1 0.1 0.1 0.2 0.1 0.3 0 0.1-0.1 0.2-0.2 0.2v0c-0.1 0.3-0.5 0.4-0.6 0.7-0.1 0.4-0.2 0.8-0.3 1.2-0.1 0.3-0.1 0.5-0.1 0.8 0 0.3-0.1 0.5-0.1 0.8-0.1 0.4-0.2 0.8-0.3 1.2 0 0.2-0.1 0.4-0.1 0.6 0.1 0.1 0.2 0.2 0.3 0.2 0.2 0.2 0.4 0.4 0.6 0.6 0.1 0.1 0.1 0.2 0 0.2-0.1 0.1-0.2 0.1-0.3 0.1-0.1-0.1-0.3-0.2-0.4-0.2-0.1-0.1-0.3-0.2-0.5-0.1 0 0.2-0.1 0.4-0.1 0.5-0.1 0.2-0.2 0.5-0.2 0.7-0.1 0.4-0.3 0.7-0.4 1.1-0.2 0.5-0.4 0.9-0.6 1.3-0.1 0.2-0.2 0.4-0.3 0.6v0c0 0.3-0.3 0.6-0.4 0.9-0.2 0.4-0.4 0.8-0.6 1.3-0.1 0.2-0.2 0.4-0.3 0.5-0.2 0.5-0.4 0.9-0.7 1.3-0.2 0.3-0.4 0.5-0.6 0.6-0.2 0.2-0.4 0.4-0.6 0.6-0.1 0.1-0.2 0.2-0.3 0.3-0.1 0.1-0.1 0.1-0.2 0.2-0.2 0.3-0.5 0.5-0.7 0.8-0.2 0.2-0.3 0.4-0.6 0.6-0.2 0.2-0.4 0.5-0.7 0.6-0.1 0.1-0.2 0.3-0.3 0.4-0.1 0.1-0.2 0.3-0.3 0.4 0 0.2 0.1 0.4 0.1 0.5 0 0.3-0.3 0.4-0.5 0.2-0.3-0.2-0.3-0.2-0.6 0-0.3 0.2-0.6 0.5-1 0.6-0.1 0-0.1 0.1-0.2 0.1-0.2 0.1-0.3 0.3-0.5 0.4-0.2 0.2-0.5 0.3-0.7 0.5-0.1 0.1-0.2 0.1-0.3 0.2-0.3 0.2-0.6 0.3-0.9 0.6-0.1 0.1-0.2 0.1-0.3 0.2 0 0.1 0 0.1 0 0.2 0 0.2-0.2 0.4-0.5 0.3-0.3-0.1-0.5 0-0.8 0-0.3 0.1-0.6 0.3-0.9 0.4-0.1 0-0.2 0.1-0.3 0.2-0.3 0.2-0.6 0.3-0.9 0.4-0.2 0-0.4 0.2-0.6 0.2-0.1 0-0.2 0.1-0.3 0.1h-0.1c-0.4 0.3-0.8 0.5-1.2 0.8-0.1 0-0.1 0.1-0.2 0.2-0.1 0.2-0.2 0.3-0.4 0.3-0.5 0-0.7 0.4-0.6 0.8 0 0.1 0.1 0.2 0.1 0.3 0.1 0.2 0 0.4-0.1 0.5-0.1 0.1-0.4 0.1-0.5-0.1-0.2-0.2-0.3-0.4-0.4-0.7-0.1-0.2-0.3-0.4-0.5-0.5-0.2-0.1-0.4-0.1-0.6 0-0.1 0-0.1 0.1-0.2 0.1-0.2 0.2-0.5 0.3-0.8 0.2-0.1 0-0.3 0-0.3 0.1-0.1 0.1-0.1 0.3 0 0.4 0.2 0.2 0.1 0.4 0.1 0.7 0 0.4-0.3 0.6-0.7 0.4-0.1-0.1-0.2-0.1-0.3-0.2-0.1 0-0.1-0.1-0.1-0.2-0.1-0.1-0.1-0.3-0.2-0.5-0.2 0.1-0.4 0.1-0.6 0.2-0.1 0-0.2 0.1-0.3 0.1-0.3 0-0.4 0-0.5-0.3-0.1-0.3-0.3-0.3-0.5-0.4-0.4-0.1-0.9-0.1-1.3-0.3h-0.1c-0.4-0.3-0.8-0.3-1.3-0.3-0.3 0-0.6 0.1-0.9 0.1-0.3 0-0.5 0.1-0.7 0.3-0.1 0.1-0.2 0.2-0.3 0.2-0.1-0.1-0.1-0.2-0.2-0.3v-0.1c0-0.1-0.1-0.2-0.2-0.1-0.2 0.1-0.4-0.1-0.6-0.2-0.1-0.1-0.3-0.3-0.3-0.5-0.1-0.1-0.2-0.2-0.3-0.2-0.2 0-0.5-0.1-0.7-0.1-0.1 0-0.2 0-0.2-0.1-0.1-0.1-0.2-0.1-0.4-0.1-0.1 0-0.1-0.1-0.2-0.1 0.2 0.2 0.3 0.4 0.4 0.6 0 0.1 0.1 0.1 0.1 0.2 0.1 0.2 0 0.3-0.3 0.3-0.2 0-0.2 0-0.3 0.1 0 0.2 0 0.3 0 0.5 0 0.1 0 0.2-0.2 0.3 0 0-0.1 0-0.1 0.1-0.1 0.1-0.1 0.2 0 0.3 0.3 0.2 0.5 0.3 0.8 0.4 0.3 0 0.3 0.2 0.4 0.4 0.1 0.2 0 0.3-0.1 0.5-0.2 0.2-0.4 0.4-0.6 0.6-0.3 0.1-0.5 0.4-0.8 0.4-0.2 0-0.4-0.1-0.5-0.3-0.1-0.5-0.1-0.9 0.1-1.4 0-0.1 0.1-0.2 0-0.3-0.9 0-0.9-0.2-0.9-0.3 0-0.2 0.1-0.3 0.1-0.5 0.1-0.2 0-0.3-0.3-0.4-0.1 0-0.2 0-0.3 0-0.1 0-0.1-0.1-0.3-0.1 0.2-0.1 0.3-0.1 0.5-0.2-0.1-0.4-0.2-0.7-0.5-0.9-0.1-0.1-0.2-0.2-0.2-0.4 0-0.3-0.2-0.5-0.3-0.7-0.2-0.3-0.6-0.4-0.9-0.4-0.3-0.1-0.5-0.1-0.8-0.2-0.3-0.1-0.6-0.4-0.9-0.5-0.1-0.1-0.2-0.2-0.4-0.3-0.4-0.2-0.7-0.5-1-0.8-0.2-0.1-0.3-0.3-0.5-0.4-0.2-0.2-0.3-0.4-0.5-0.5-0.2-0.2-0.4-0.4-0.7-0.6-0.3-0.2-0.5-0.5-0.8-0.8-0.2-0.3-0.5-0.5-0.8-0.7-0.1 0-0.2 0-0.3 0-0.1 0-0.2 0.1-0.3 0.1-0.3 0.1-0.5 0.3-0.8 0.4 0.1-0.1 0.1-0.1 0-0.3-0.1-0.1-0.2-0.2-0.3-0.2-0.2 0-0.4 0-0.6 0-0.4 0-0.8 0.1-1.2 0.1-0.3 0-0.7 0.1-1 0.2 0.1 0.2 0.1 0.3 0.2 0.5-0.2 0.1-0.4 0.1-0.6 0.1-0.1 0-0.3 0.1-0.4 0.2-0.1 0-0.1 0.1-0.2 0-0.2-0.1-0.4 0-0.6 0.1h-0.1c0 0 0-0.1 0.1-0.1 0.1-0.1 0.2-0.2 0.3-0.3 0.1-0.1 0.2-0.1 0.4-0.2-0.1-0.1-0.1-0.2-0.1-0.2-0.1-0.1-0.2-0.1-0.3 0-0.1 0.1-0.2 0.2-0.3 0.3-0.1 0.1-0.2 0.1-0.3 0-0.1-0.1-0.1-0.2 0-0.3 0-0.1 0.1-0.2 0.2-0.3 0.1-0.1 0.1-0.2 0.2-0.3-0.2-0.2-0.3-0.4-0.5-0.5-0.3-0.2-0.6-0.5-0.8-0.8-0.2-0.4-0.5-0.7-0.9-0.9-0.1-0.1-0.2-0.2-0.3-0.3-0.1-0.1-0.1-0.1-0.2-0.2-0.3 0.1-0.5 0.3-0.8 0.4-0.1 0-0.1 0.1-0.2 0.2-0.1 0.2-0.3 0.2-0.5 0.2-0.1 0-0.2-0.1-0.1-0.2 0.1-0.2 0.2-0.4 0.5-0.3 0 0 0.1 0 0.1-0.1 0.2-0.2 0.4-0.5 0.7-0.7-0.1-0.3-0.3-0.5-0.4-0.7-0.1-0.1-0.1-0.2-0.1-0.4 0-0.1 0-0.1-0.1-0.2 0 0-0.1 0-0.2 0.1-0.1 0.1-0.3 0.2-0.5 0 0-0.1 0-0.2 0.1-0.3l0.1-0.1c0.3-0.1 0.3-0.4 0.3-0.7v-0.1c-0.1-0.2-0.1-0.3 0.1-0.5 0.3-0.2 0.6-0.6 0.7-0.9 0.1-0.2 0.3-0.3 0.5-0.5 0.2-0.2 0.4-0.4 0.5-0.7h0.1c0.4 0.1 0.5-0.2 0.7-0.5 0-0.1 0-0.2 0.1-0.2 0.2-0.2 0.2-0.4 0.1-0.7 0-0.1-0.1-0.3-0.1-0.4 0-0.1 0-0.1-0.1-0.2-0.3-0.2-0.3-0.4 0-0.6 0.2-0.1 0.2-0.3 0.3-0.4 0.1-0.2 0.1-0.4 0.1-0.7-0.1-0.3-0.1-0.7-0.2-1-0.1-0.4-0.2-0.9-0.3-1.3 0-0.1 0-0.1 0-0.2 0-0.3 0-0.5-0.1-0.8-0.1-0.1-0.1-0.3-0.1-0.4-0.1-0.3-0.2-0.5-0.5-0.6-0.3-0.2-0.7-0.3-1-0.5-0.1-0.1-0.2 0-0.3 0.1-0.1 0.2-0.3 0.4-0.4 0.6-0.1 0.1-0.2 0.3-0.3 0.5-0.2 0.2-0.6 0.4-0.9 0.1-0.1-0.2-0.2-0.3 0-0.5 0.2-0.3 0.4-0.6 0.7-0.8 0.1-0.1 0.2-0.3 0.3-0.4 0.1-0.2 0.1-0.4 0.1-0.6-0.1-0.4-0.2-0.8-0.2-1.3 0-0.5 0-0.9 0.1-1.4 0.1-0.2 0.1-0.5 0.2-0.7 0-0.1 0.1-0.3 0.2-0.4 0.2-0.2 0.4-0.4 0.5-0.7 0.1-0.3 0.3-0.6 0.3-0.9 0-0.1 0.1-0.2 0.1-0.3 0-0.1 0.1-0.3 0.1-0.4-0.1-0.3 0-0.5 0.1-0.7 0.1-0.2 0.2-0.5 0.3-0.7 0.2-0.4 0.2-0.9 0.6-1.3 0.1-0.2 0.2-0.4 0.3-0.6 0.1-0.4 0.3-0.7 0.5-1 0.1-0.1 0.1-0.1 0.1-0.2 0.1-0.3 0.3-0.6 0.5-0.9 0.2-0.3 0.2-0.6 0.3-0.9 0-0.1 0-0.2 0.1-0.3 0.3-0.3 0.2-0.7 0.1-1.1-0.2-0.5-0.3-1-0.2-1.5 0-0.1 0-0.2 0.1-0.2 0.1-0.2 0.1-0.3 0.2-0.5v-0.1c0.2-0.2 0.4-0.5 0.7-0.6 0.4-0.2 0.8-0.3 1.3-0.4 0.4 0 0.8-0.2 1.1-0.6 0-0.1 0.1-0.1 0.2-0.2l0.1-0.1c0.1-0.2 0.2-0.3 0.3-0.4 0.2-0.2 0.4-0.5 0.6-0.7 0.2-0.2 0.4-0.5 0.7-0.8l0.1-0.1c0.2-0.2 0.4-0.4 0.6-0.5 0.2-0.2 0.4-0.4 0.6-0.6 0.2-0.2 0.3-0.4 0.5-0.6 0.2-0.1 0.4-0.3 0.6-0.5 0.2-0.2 0.4-0.4 0.5-0.5 0.2-0.2 0.5-0.4 0.7-0.5 0.2-0.1 0.4-0.2 0.5-0.5 0.1-0.3 0.2-0.5 0.3-0.8 0-0.2 0.1-0.4 0.2-0.6 0.1 0 0.2 0 0.4-0.1-0.1-0.1-0.2-0.1-0.2-0.2 0-0.1 0.1-0.2 0.1-0.2 0-0.1 0.1-0.2 0.1-0.3 0 0 0.1 0 0.1-0.1 0 0 0.1 0 0.1-0.1-0.2 0.1-0.3 0-0.4-0.1 0.1 0.1 0.2 0.1 0.4 0.2 0 0 0.1 0 0.1-0.1 0-0.1 0-0.2 0-0.2 0 0-0.1 0-0.2 0-0.1 0-0.2 0.1-0.3 0.1zM54 70.5c0-0.1-0.1-0.1-0.1-0.2-0.1-0.2 0-0.3 0.1-0.4 0.1-0.1 0.2-0.1 0.4-0.1 0.2 0.1 0.3 0.2 0.3 0.4 0 0.1 0 0.3 0 0.4 0.1 0.4 0.1 0.4 0.5 0.4 0.2 0 0.4 0 0.6 0 0.4-0.1 0.8-0.3 1.2-0.4 0.4-0.1 0.8-0.2 1.2-0.3 0.1 0 0.2 0 0.4 0 0.4 0.1 0.7 0 1-0.2 0.1-0.1 0.3-0.1 0.4-0.2 0.2-0.1 0.4-0.1 0.6-0.2 0.5-0.3 1-0.5 1.4-0.8 0.3-0.2 0.6-0.4 0.9-0.6 0.3-0.2 0.6-0.4 0.9-0.6 0.2-0.1 0.5-0.3 0.7-0.5 0.4-0.3 0.7-0.6 1.1-0.8 0.2-0.1 0.3-0.2 0.4-0.3 0.2-0.1 0.3-0.3 0.5-0.4 0.1-0.1 0.2-0.2 0.4-0.3 0.1-0.1 0.1-0.1 0.1-0.2 0.3-0.2 0.6-0.6 0.8-0.9 0.2-0.2 0.4-0.4 0.6-0.7 0.3-0.3 0.5-0.7 0.8-1.1 0.2-0.2 0.4-0.5 0.5-0.7 0.2-0.4 0.4-0.8 0.7-1.1v-0.1c0.2-0.4 0.4-0.8 0.6-1.2 0.3-0.5 0.5-1.1 0.8-1.6 0.1-0.2 0.2-0.4 0.2-0.6 0.2-0.4 0.3-0.8 0.4-1.2 0-0.1 0-0.1 0.1-0.2 0.3-0.6 0.5-1.2 0.6-1.9 0.1-0.4 0.2-0.8 0.3-1.2 0.2-0.6 0.2-1.1 0.3-1.7 0.1-0.4 0.1-0.9 0.1-1.3 0.1-0.6 0.1-1.3 0-1.9 0-0.5-0.1-1.1-0.1-1.6 0-0.5-0.1-0.9-0.2-1.4-0.1-0.5-0.2-0.9-0.3-1.4-0.2-0.4-0.3-0.8-0.4-1.3-0.1-0.4-0.3-0.7-0.3-1.1 0-0.3-0.1-0.6-0.4-0.7-0.3-0.1-0.5-0.2-0.8-0.4-0.6-0.4-0.9-0.9-0.8-1.5 0-0.3 0.1-0.7 0.2-1 0.1-0.3 0.2-0.6 0-0.8-0.1-0.3-0.3-0.5-0.4-0.7-0.2-0.3-0.3-0.5-0.5-0.7-0.2-0.4-0.4-0.8-0.7-1.1-0.4-0.5-0.7-1-1.2-1.4l-0.1-0.1c-0.3-0.4-0.6-0.8-1-1.1-0.2-0.2-0.4-0.4-0.6-0.5-0.1-0.1-0.2-0.2-0.4-0.3-0.3-0.2-0.6-0.3-0.8-0.5-0.3-0.3-0.7-0.5-1-0.7 0 0-0.1 0-0.1-0.1-0.4-0.2-0.7-0.3-1.1-0.5-0.4-0.2-0.8-0.3-1.2-0.3-0.1 0-0.1 0-0.2 0-0.1-0.1-0.3-0.1-0.4-0.1-0.1 0-0.1 0-0.2 0-0.2-0.1-0.5 0-0.7 0-0.4 0.1-0.8 0.1-1.2-0.1-0.5-0.2-0.9-0.4-1.3-0.6-0.3-0.2-0.5-0.4-0.8-0.6-0.6-0.5-1.2-1.1-1.9-1.6 0.1-0.5-0.1-0.6-0.5-0.6-0.2 0-0.4 0.1-0.6 0.2-0.1 0.1-0.1 0.1-0.2 0.2-0.3 0.2-0.5 0.5-0.8 0.7-0.5 0.3-0.7 0.2-1.1 0-0.1-0.1-0.2-0.2-0.3-0.3-0.2-0.2-0.4-0.5-0.5-0.7-0.2-0.4-0.6-0.4-1-0.4-0.2 0-0.5 0.1-0.7 0.1-0.4 0-0.8 0.2-1 0.5-0.2 0.3-0.4 0.6-0.7 0.9-0.1 0.1-0.3 0.2-0.4 0.4-0.2 0.2-0.4 0.2-0.6 0-0.1-0.1-0.2-0.1-0.3-0.2-0.1 0.1-0.2 0.2-0.2 0.3-0.1 0.2-0.2 0.4-0.3 0.7-0.1 0.3-0.3 0.6-0.5 0.8-0.1 0.1-0.1 0.1-0.2 0.2-0.1 0.2-0.4 0.3-0.6 0.3-0.2 0.2-0.4 0.5-0.5 0.7-0.1 0.2-0.2 0.4-0.3 0.7-0.1 0.1-0.1 0.3-0.2 0.4-0.1 0.2-0.1 0.3-0.1 0.5 0.1 0.3-0.1 0.4-0.4 0.5-0.2 0-0.2 0-0.3 0.2 0 0.3 0.1 0.5 0.2 0.8 0.1 0.1 0.2 0.3 0.2 0.4 0 0.2 0.1 0.3 0.3 0.4 0.1 0.1 0.2 0.2 0.3 0.2 0.1 0 0.1 0.1 0.2 0.1 0.1 0.1 0.2 0 0.2-0.1 0.1-0.3 0.2-0.6 0.2-0.9 0.1-0.4 0.1-0.7 0.2-1.1 0.1-0.2 0.2-0.3 0.3-0.4 0 0 0.1 0 0.2 0v0.1c-0.1 0.5-0.3 1.1-0.4 1.6-0.1 0.2-0.1 0.4-0.2 0.6 0 0.1-0.1 0.2-0.2 0.2-0.2 0.1-0.4 0.2-0.6 0.2-0.1 0-0.2 0-0.3 0-0.2-0.1-0.4-0.3-0.6-0.4-0.1-0.1-0.2-0.2-0.3-0.3-0.1-0.2-0.2-0.4-0.3-0.6-0.1-0.2-0.2-0.3-0.4-0.4-0.1-0.1-0.2-0.1-0.3-0.2-0.2-0.2-0.4-0.3-0.7-0.3-0.1 0-0.3 0-0.4 0-0.1 0-0.3 0.1-0.4 0.2-0.2 0.1-0.3 0.1-0.5 0-0.5-0.2-1-0.1-1.5 0.1-0.2 0.1-0.4 0.2-0.6 0.2-0.5 0-0.9 0-1.4 0-0.5 0-0.9-0.1-1.4-0.2-0.2 0-0.4 0-0.6 0-0.4 0.1-0.5 0.4-0.4 0.8 0.1 0.4 0.2 0.9 0.2 1.3 0 0.3 0 0.6 0 0.9 0 0.2 0 0.3 0 0.5 0 0.3-0.1 0.6-0.1 0.9-0.1 0.6-0.4 1.1-0.8 1.5-0.3 0.3-0.7 0.6-1.1 0.7-0.2 0.1-0.4 0.2-0.7 0.3-0.5 0.2-0.9 0.6-1.2 1.1-0.1 0.2-0.2 0.4-0.3 0.6-0.2 0.3-0.3 0.5-0.5 0.8-0.1 0.2-0.3 0.4-0.4 0.6-0.1 0.2-0.3 0.3-0.3 0.5-0.2 0.4-0.3 0.8-0.5 1.2-0.1 0.2-0.1 0.5-0.2 0.7-0.2 0.4-0.2 0.8-0.2 1.3 0 0.1 0 0.2 0 0.4 0 0.5-0.1 1.1-0.1 1.6 0 0.5 0 1 0.1 1.5 0 0.2 0 0.5 0 0.7 0 0.4 0.1 0.9 0.1 1.3 0 0.4 0 0.9 0.2 1.3v0.1c0.1 0.4 0.1 0.8 0.2 1.2 0 0.1 0 0.2 0.1 0.3 0.2 0.6 0.3 1.1 0.5 1.7 0.1 0.4 0.3 0.8 0.4 1.2 0.1 0.4 0.5 0.8 0.6 1.3v0c0.3 0.6 0.6 1.2 1 1.8 0.1 0.2 0.3 0.4 0.4 0.6 0.2 0.3 0.3 0.6 0.5 0.8 0.1 0.2 0.3 0.4 0.4 0.5 0.1 0.2 0.2 0.4 0.4 0.6 0.2 0.2 0.4 0.5 0.6 0.7 0.3 0.5 0.7 0.9 1.1 1.2 0.2 0.2 0.4 0.3 0.6 0.5 0.1 0.1 0.2 0.1 0.2 0.2 0.1 0.1 0.2 0.2 0.4 0.3 0.8 0.4 1.4 1 2.1 1.6 0.3 0.3 0.6 0.6 1 0.8 0.4 0.3 0.7 0.6 1.2 0.7 0 0 0.1 0 0.1 0.1 0.2 0.2 0.5 0.3 0.7 0.4 0.4 0.2 0.9 0.4 1.3 0.6 0.1 0.1 0.3 0.1 0.4 0.2 0.3 0.1 0.6 0.2 0.9 0.3 0.3 0.1 0.5 0.2 0.8 0.2h0.1c0.2 0.1 0.3 0.1 0.5 0 0.1 0 0.2 0 0.2 0.1 0 0.1 0.1 0.1 0.2 0.1 0.1 0 0.2 0 0.4 0 0.1-0.1 0.1-0.2 0.2-0.4 0.1 0.1 0.2 0.1 0.2 0.1 0.1 0.2 0.3 0.2 0.5 0.2h0.1c0.2 0 0.3 0 0.4-0.1 0-0.1 0.2-0.1 0.3-0.1 0.3 0.1 0.6 0.1 0.9 0.2 0.2 0.1 0.5 0.1 0.6-0.1 0.1-0.1 0.2-0.2 0.4-0.1 0.2 0.1 0.3 0.1 0.5 0 0.1 0 0.2 0 0.2 0 0.3 0.1 0.5 0.1 0.8 0.2 0.4 0.1 0.4 0.1 0.7-0.2 0.1-0.1 0.3-0.1 0.4 0 0.1 0.2 0.1 0.3 0.1 0.5 0.1 0 0.1 0 0.2-0.1 0-0.2 0.1-0.2 0.3-0.3 0.1 0.1 0.1 0.1 0.2 0.1 0.2 0.2 0.3 0.2 0.4-0.1 0-0.1 0-0.2 0.1-0.2 0.1 0 0.2 0.1 0.2 0.1 0.1 0.2 0.3 0.3 0.4 0.5 0.2 0.2 0.5 0.2 0.6 0 0.1-0.1 0.2-0.1 0.3-0.1 0-0.1 0-0.2 0-0.3 0.3 0.2 0.2 0.2 0.1 0.2zM37.4 23.8c0.3 0.1 0.5 0.1 0.6-0.1-0.2 0.1-0.4-0.1-0.6 0.1z" fill="#bbb3db" fill-rule="nonzero" stroke="none" stroke-width="1" stroke-linecap="butt" stroke-linejoin="miter" stroke-miterlimit="10" stroke-dasharray="" stroke-dashoffset="0" font-family="none" font-weight="none" font-size="none" text-anchor="none" style="mix-blend-mode: normal" data-fill-palette-color="tertiary"></path></g><g transform="matrix(1,0,0,1,64,142.76779540526059)"><svg viewBox="0 0 192 74.4644091894788" height="74.4644091894788" width="192"><g><svg viewBox="0 0 322.4890483539823 125.07268987373206" height="74.4644091894788" width="192"><g transform="matrix(1,0,0,1,130.4890483539823,16.069590671379302)"><svg viewBox="0 0 192 92.93350853097346" height="92.93350853097346" width="192"><g id="textblocktransform"><svg viewBox="0 0 192 92.93350853097346" height="92.93350853097346" width="192" id="textblock"><g><svg viewBox="0 0 192 50.123893805309734" height="50.123893805309734" width="192"><g transform="matrix(1,0,0,1,0,0)"><svg width="192" viewBox="2.1499999999999995 -39.95 203.38 53.1" height="50.123893805309734" data-palette-color="#bbb3db"><path d="M12-21.85L31.7-21.85 31.7-37.6 27.65-38.1Q27.45-38.85 27.65-39.95L27.65-39.95Q30.4-39.75 34.5-39.75L34.5-39.75Q38.2-39.75 41.4-39.9L41.4-39.9Q41.7-39 41.4-38.1L41.4-38.1 37.25-37.5Q37.05-35.6 37.05-31.65L37.05-31.65 37.05-2.2 41.1-1.7Q41.3-0.95 41.1 0.15L41.1 0.15Q37.95 0 34.25 0L34.25 0Q31.55 0 27.35 0.1L27.35 0.1Q27.05-0.8 27.35-1.7L27.35-1.7 31.5-2.3Q31.7-4.2 31.7-8.15L31.7-8.15 31.7-19.35 12-19.35 12-2.2 16.05-1.7Q16.25-0.95 16.05 0.15L16.05 0.15Q12.9 0 9.2 0L9.2 0Q6.5 0 2.3 0.1L2.3 0.1Q2-0.8 2.3-1.7L2.3-1.7 6.45-2.3Q6.65-4.2 6.65-8.15L6.65-8.15 6.65-37.6 2.6-38.1Q2.4-38.85 2.6-39.95L2.6-39.95Q5.35-39.75 9.45-39.75L9.45-39.75Q13.1-39.75 16.35-39.9L16.35-39.9Q16.65-39 16.35-38.1L16.35-38.1 12.2-37.5Q12-35.6 12-31.65L12-31.65 12-21.85ZM50.15-6.65L50.15-6.65Q50.15-4.05 51.1-2.98 52.05-1.9 54.1-1.9L54.1-1.9Q55.6-1.9 57.42-2.83 59.25-3.75 60.8-5.5L60.8-5.5 60.8-13.3Q55.65-13 52.9-11.48 50.15-9.95 50.15-6.65ZM60.8-15.1L60.8-15.1 60.8-17.65Q60.8-21.9 59.82-23.83 58.85-25.75 56.6-25.75L56.6-25.75Q54.3-25.75 52.9-24.28 51.5-22.8 51-19.25L51-19.25Q49.4-18.9 48.65-18.9L48.65-18.9Q46.7-18.9 46.35-20.3L46.35-20.3Q46.35-23.7 49.3-25.7 52.25-27.7 56.65-27.7L56.65-27.7Q61.5-27.7 63.52-25.73 65.55-23.75 65.55-18.65L65.55-18.65 65.55-4.55Q65.55-3.3 65.7-2.4L65.7-2.4 69.65-1.9Q69.85-1.15 69.65 0L69.65 0Q66.1 0.15 62.1 0.7L62.1 0.7Q61.7 0.3 61.6-0.3L61.6-0.3 61.35-3.75Q57.2 1 52.1 1L52.1 1Q48.95 1 47.17-0.8 45.4-2.6 45.4-5.65L45.4-5.65Q45.4-10.25 49.57-12.6 53.75-14.95 60.8-15.1ZM92.39-8.7L92.39-17.85Q92.39-21.7 91.37-23.25 90.34-24.8 87.94-24.8L87.94-24.8Q84.25-24.8 80.5-19.25L80.5-19.25 80.5-2.55 84.55-1.8Q84.75-1 84.55 0.2L84.55 0.2Q81.39 0.05 78.09 0.05L78.09 0.05Q75.8 0.05 71.59 0.15L71.59 0.15Q71.3-0.8 71.59-1.8L71.59-1.8 75.55-2.35Q75.75-5.1 75.75-8.7L75.75-8.7 75.75-22.4Q75.75-23.4 75.59-24.25L75.59-24.25 71.64-24.75Q71.44-25.5 71.64-26.65L71.64-26.65Q75.09-26.9 80.25-27.7L80.25-27.7Q80.69-27.2 80.75-26.7L80.75-26.7Q80.5-25.4 80.5-22.25L80.5-22.25Q84.44-27.7 89.39-27.7L89.39-27.7Q97.14-27.7 97.14-20.35L97.14-20.35 97.14-2.55 101.19-1.8Q101.39-1 101.19 0.2L101.19 0.2Q98.05 0.05 94.75 0.05L94.75 0.05Q92.44 0.05 88.25 0.15L88.25 0.15Q87.94-0.8 88.25-1.8L88.25-1.8 92.19-2.35Q92.39-5.1 92.39-8.7L92.39-8.7ZM107.94 0.55L107.94 0.55Q108.39 0.75 108.69 1.4L108.69 1.4Q107.04 2.75 107.04 5.45L107.04 5.45Q107.04 7.85 109.24 9.3 111.44 10.75 114.94 10.75L114.94 10.75Q118.54 10.75 120.94 9.43 123.34 8.1 123.34 5.7L123.34 5.7Q123.34 3.1 122.39 1.88 121.44 0.65 118.59 0.4L118.59 0.4 109.24-0.45Q107.69-0.65 106.67-2.08 105.64-3.5 105.64-4.85L105.64-4.85 108.99-10.4Q106.69-11.7 105.52-13.85 104.34-16 104.34-18.25L104.34-18.25Q104.34-22.5 107.49-25.1 110.64-27.7 114.74-27.7L114.74-27.7Q118.69-27.7 121.69-25.6L121.69-25.6Q121.94-32.45 126.79-32.7L126.79-32.7Q128.09-32.4 128.09-30.55L128.09-30.55Q128.09-29.55 127.89-28.35L127.89-28.35Q125.94-28.2 124.69-27.08 123.44-25.95 122.89-24.5L122.89-24.5Q125.39-22 125.39-18.25L125.39-18.25Q125.39-14.3 122.19-11.68 118.99-9.05 114.74-9.05L114.74-9.05Q112.49-9.05 110.69-9.65L110.69-9.65 108.99-5.2 121.44-3.95Q124.34-3.6 125.87-1.83 127.39-0.05 127.39 2.8L127.39 2.8Q127.39 7.8 123.79 10.48 120.19 13.15 114.04 13.15L114.04 13.15Q108.94 13.15 106.09 11.3 103.24 9.45 103.24 6.35L103.24 6.35Q103.24 4.25 104.59 2.63 105.94 1 107.94 0.55ZM108.84-18.25L108.84-18.25Q108.84-15.35 110.47-13.3 112.09-11.25 114.79-11.25L114.79-11.25Q117.44-11.25 119.14-13.28 120.84-15.3 120.84-18.25L120.84-18.25Q120.84-21.45 119.17-23.58 117.49-25.7 114.79-25.7L114.79-25.7Q112.24-25.7 110.54-23.55 108.84-21.4 108.84-18.25ZM130.29-13.3L130.29-13.3Q130.29-16.3 131.16-18.93 132.04-21.55 133.69-23.5 135.34-25.45 137.66-26.58 139.99-27.7 142.89-27.7L142.89-27.7Q145.74-27.7 148.09-26.58 150.44-25.45 152.11-23.5 153.79-21.55 154.69-18.93 155.59-16.3 155.59-13.3L155.59-13.3Q155.59-10.2 154.66-7.6 153.74-5 152.06-3.08 150.39-1.15 148.04-0.08 145.69 1 142.89 1L142.89 1Q139.94 1 137.61-0.05 135.29-1.1 133.66-3 132.04-4.9 131.16-7.53 130.29-10.15 130.29-13.3ZM137.59-22.5L137.59-22.5Q135.44-19.45 135.44-13.3L135.44-13.3Q135.44-10.25 136.01-7.95 136.59-5.65 137.59-4.13 138.59-2.6 139.94-1.85 141.29-1.1 142.89-1.1L142.89-1.1Q144.44-1.1 145.84-1.85 147.24-2.6 148.24-4.13 149.24-5.65 149.84-7.95 150.44-10.25 150.44-13.3L150.44-13.3Q150.44-16.35 149.84-18.68 149.24-21 148.21-22.53 147.19-24.05 145.81-24.83 144.44-25.6 142.89-25.6L142.89-25.6Q139.79-25.6 137.59-22.5ZM183.54-26.7L183.54-26.7 183.54-7.1Q183.54-3.75 183.69-2.4L183.69-2.4 187.64-1.9Q187.79-1.1 187.64 0L187.64 0Q183.99 0.15 180.04 0.7L180.04 0.7Q179.69 0.35 179.54-0.25L179.54-0.25 179.29-4.7Q177.19-2 174.96-0.5 172.74 1 169.74 1L169.74 1Q166.69 1 164.61-0.55 162.54-2.1 162.54-5.85L162.54-5.85 162.54-16.95Q162.54-22.65 162.39-24.25L162.39-24.25 158.44-24.75Q158.24-25.5 158.44-26.65L158.44-26.65Q161.89-26.9 167.04-27.7L167.04-27.7Q167.49-27.2 167.54-26.7L167.54-26.7Q167.29-25.4 167.29-8.35L167.29-8.35Q167.29-4.85 168.11-3.38 168.94-1.9 171.19-1.9L171.19-1.9Q175.39-1.9 178.79-6.9L178.79-6.9 178.79-17Q178.79-22.65 178.64-24.25L178.64-24.25 174.69-24.75Q174.49-25.5 174.69-26.65L174.69-26.65Q177.69-26.85 183.04-27.7L183.04-27.7Q183.49-27.2 183.54-26.7ZM197.98-32.7L197.98-32.7 197.98-25.55 205.03-25.55Q205.13-24.95 205.13-24.65L205.13-24.65Q205.13-24.2 205.03-23.6L205.03-23.6 197.98-22.55 197.98-8.8Q197.98-5.1 198.66-3.58 199.33-2.05 200.78-2.05L200.78-2.05Q202.08-2.05 204.83-3.1L204.83-3.1Q205.33-2.65 205.53-1.4L205.53-1.4Q204.03-0.5 203.26-0.08 202.48 0.35 201.31 0.68 200.13 1 198.83 1L198.83 1Q196.33 1 194.76-0.93 193.18-2.85 193.18-6.8L193.18-6.8 193.18-23.15 189.68-23.6Q189.58-24.1 189.58-24.45L189.58-24.45Q189.58-24.85 189.68-25.55L189.68-25.55Q191.08-25.8 192.11-26.43 193.13-27.05 193.83-28.18 194.53-29.3 194.91-30.18 195.28-31.05 195.83-32.7L195.83-32.7Q196.28-32.85 196.93-32.85L196.93-32.85Q197.53-32.85 197.98-32.7Z" opacity="1" transform="matrix(1,0,0,1,0,0)" fill="#bbb3db" class="wordmark-text-0" data-fill-palette-color="primary" id="text-0"></path></svg></g></svg></g><g transform="matrix(1,0,0,1,0,61.95694215929203)"><svg viewBox="0 0 192 30.976566371681415" height="30.976566371681415" width="192"><g transform="matrix(1,0,0,1,0,0)"><svg width="192" viewBox="2.1499999999999995 -40.8 259.09000000000003 41.8" height="30.976566371681415" data-palette-color="#bbb3db"><path d="M2.6-39.95L2.6-39.95Q5.15-39.95 9.95-40.15 14.75-40.35 16.3-40.35L16.3-40.35 17.65-40.35Q24.2-40.35 27.4-37.68 30.6-35 30.6-30.65L30.6-30.65Q30.6-24.45 22.5-22.05L22.5-22.05 22.5-21.9Q27.2-21.2 29.93-18.23 32.65-15.25 32.65-11.1L32.65-11.1Q32.65-5.55 28.88-2.45 25.1 0.65 17.8 0.65L17.8 0.65Q15.8 0.65 11.33 0.33 6.85 0 4.2 0L4.2 0Q3.9 0 3.25 0.03 2.6 0.05 2.3 0.05L2.3 0.05Q2-0.85 2.3-1.75L2.3-1.75 6.45-2.3Q6.65-4.2 6.65-8.15L6.65-8.15 6.65-37.6 2.6-38.1Q2.4-38.85 2.6-39.95ZM16-20.3L16-20.3 12-20.3 12-2.2Q14.55-1.75 16.05-1.65L16.05-1.65Q22.1-1.65 24.4-3.93 26.7-6.2 26.7-11.05L26.7-11.05Q26.7-14.95 23.88-17.63 21.05-20.3 16-20.3ZM16.35-38.25L16.35-38.25Q13.85-38.25 12.2-37.9L12.2-37.9Q12-36 12-31.65L12-31.65 12-22.8 15.9-22.8Q20.55-22.8 22.68-24.7 24.8-26.6 24.8-30.35L24.8-30.35Q24.8-34.15 22.48-36.2 20.15-38.25 16.35-38.25ZM62.85-14.1L62.85-14.1 47.15-14.1Q46.7-1.35 54.8-1.35L54.8-1.35Q58.25-1.35 61.85-4.4L61.85-4.4Q62.6-3.95 63-2.85L63-2.85Q59.55 1 54.25 1L54.25 1Q42.05 1 42.05-13.35L42.05-13.35Q42.05-20.15 45.65-23.93 49.25-27.7 54.05-27.7L54.05-27.7Q59.3-27.7 61.6-24.05 63.9-20.4 63.9-14.55L63.9-14.55Q63.4-14.15 62.85-14.1ZM53.95-25.7L53.95-25.7Q51.35-25.7 49.52-23 47.7-20.3 47.3-16.1L47.3-16.1 53.5-16.1Q57.2-16.1 58.8-16.55L58.8-16.55Q58.8-20.65 57.55-23.18 56.3-25.7 53.95-25.7ZM98.85-1.2L98.85-1.2Q101.55-1.2 102.85-2.45 104.15-3.7 104.15-5.35L104.15-5.35Q104.15-6.3 103.85-7.1 103.55-7.9 102.87-8.65 102.2-9.4 101.1-10.13 100-10.85 98.35-11.7L98.35-11.7Q96.3-12.75 94.82-13.7 93.35-14.65 92.4-15.7 91.45-16.75 90.97-17.95 90.5-19.15 90.5-20.65L90.5-20.65Q90.5-22.45 91.15-23.78 91.8-25.1 92.97-25.98 94.15-26.85 95.75-27.28 97.35-27.7 99.3-27.7L99.3-27.7Q103.2-27.7 106.9-25.8L106.9-25.8 106.9-19.4 104.55-19.4 103.45-24.8Q101.25-25.85 98.8-25.85L98.8-25.85Q94.7-25.85 94.7-22.5L94.7-22.5Q94.7-20.7 96.05-19.2 97.4-17.7 100.4-16.2L100.4-16.2Q102.45-15.15 104-14.2 105.55-13.25 106.57-12.2 107.6-11.15 108.12-9.93 108.65-8.7 108.65-7.15L108.65-7.15Q108.65-5.4 107.9-3.9 107.15-2.4 105.8-1.33 104.45-0.25 102.55 0.38 100.65 1 98.35 1L98.35 1Q93.9 1 90-0.9L90-0.9 90-7.3 92.35-7.3 93.45-2.35Q96-1.2 98.85-1.2ZM117.59-13.3L117.59-13.3Q117.59-16.3 118.47-18.93 119.34-21.55 120.99-23.5 122.64-25.45 124.97-26.58 127.29-27.7 130.19-27.7L130.19-27.7Q133.04-27.7 135.39-26.58 137.74-25.45 139.42-23.5 141.09-21.55 141.99-18.93 142.89-16.3 142.89-13.3L142.89-13.3Q142.89-10.2 141.97-7.6 141.04-5 139.37-3.08 137.69-1.15 135.34-0.08 132.99 1 130.19 1L130.19 1Q127.24 1 124.92-0.05 122.59-1.1 120.97-3 119.34-4.9 118.47-7.53 117.59-10.15 117.59-13.3ZM124.89-22.5L124.89-22.5Q122.74-19.45 122.74-13.3L122.74-13.3Q122.74-10.25 123.32-7.95 123.89-5.65 124.89-4.13 125.89-2.6 127.24-1.85 128.59-1.1 130.19-1.1L130.19-1.1Q131.74-1.1 133.14-1.85 134.54-2.6 135.54-4.13 136.54-5.65 137.14-7.95 137.74-10.25 137.74-13.3L137.74-13.3Q137.74-16.35 137.14-18.68 136.54-21 135.52-22.53 134.49-24.05 133.12-24.83 131.74-25.6 130.19-25.6L130.19-25.6Q127.09-25.6 124.89-22.5ZM173.64-20.3L173.64-20.3Q172.59-19.2 168.69-19.25L168.69-19.25Q167.89-25.55 164.14-25.55L164.14-25.55Q161.19-25.55 159.14-22.15 157.09-18.75 157.09-13.2L157.09-13.2Q157.09-7.5 158.89-4.42 160.69-1.35 164.29-1.35L164.29-1.35Q168.09-1.35 171.74-4.45L171.74-4.45Q172.49-4 172.89-2.9L172.89-2.9Q169.24 1 163.74 1L163.74 1Q158.49 1 155.14-2.63 151.79-6.25 151.79-13.3L151.79-13.3Q151.79-20.05 155.52-23.88 159.24-27.7 164.04-27.7L164.04-27.7Q167.84-27.7 170.74-25.8 173.64-23.9 173.64-20.3ZM190.44-18.6L190.44-18.6 190.44-2.55 194.49-1.8Q194.54-1.55 194.57-1.35 194.59-1.15 194.59-0.9L194.59-0.9Q194.59-0.65 194.57-0.38 194.54-0.1 194.49 0.2L194.49 0.2Q191.34 0.05 188.04 0.05L188.04 0.05Q186.89 0.05 185.27 0.08 183.64 0.1 181.54 0.15L181.54 0.15Q181.39-0.3 181.39-0.8L181.39-0.8Q181.39-1.25 181.54-1.8L181.54-1.8 185.49-2.35Q185.59-3.75 185.64-5.33 185.69-6.9 185.69-8.7L185.69-8.7 185.69-19.35Q185.69-22.65 185.54-24.25L185.54-24.25 181.59-24.75Q181.49-25 181.49-25.6L181.49-25.6Q181.49-25.85 181.49-26.1 181.49-26.35 181.59-26.65L181.59-26.65Q184.99-26.85 190.19-27.7L190.19-27.7Q190.64-27.2 190.69-26.7L190.69-26.7Q190.44-25.3 190.44-18.6ZM183.14-36.45L183.14-36.45Q183.04-36.7 183.04-36.98 183.04-37.25 183.04-37.5L183.04-37.5Q183.04-38.85 184.17-39.68 185.29-40.5 186.94-40.5L186.94-40.5Q188.49-40.5 189.47-39.58 190.44-38.65 190.44-37.05L190.44-37.05Q190.44-35.75 189.32-34.95 188.19-34.15 186.44-34.15L186.44-34.15Q185.24-34.15 184.32-34.75 183.39-35.35 183.14-36.45ZM206.99-6.65L206.99-6.65Q206.99-4.05 207.94-2.98 208.89-1.9 210.94-1.9L210.94-1.9Q212.44-1.9 214.26-2.83 216.09-3.75 217.64-5.5L217.64-5.5 217.64-13.3Q212.49-13 209.74-11.48 206.99-9.95 206.99-6.65ZM217.64-15.1L217.64-15.1 217.64-17.65Q217.64-21.9 216.66-23.83 215.69-25.75 213.44-25.75L213.44-25.75Q211.14-25.75 209.74-24.28 208.34-22.8 207.84-19.25L207.84-19.25Q206.24-18.9 205.49-18.9L205.49-18.9Q203.54-18.9 203.19-20.3L203.19-20.3Q203.19-23.7 206.14-25.7 209.09-27.7 213.49-27.7L213.49-27.7Q218.34-27.7 220.36-25.73 222.39-23.75 222.39-18.65L222.39-18.65 222.39-4.55Q222.39-3.3 222.54-2.4L222.54-2.4 226.49-1.9Q226.69-1.15 226.49 0L226.49 0Q222.94 0.15 218.94 0.7L218.94 0.7Q218.54 0.3 218.44-0.3L218.44-0.3 218.19-3.75Q214.04 1 208.94 1L208.94 1Q205.79 1 204.01-0.8 202.24-2.6 202.24-5.65L202.24-5.65Q202.24-10.25 206.41-12.6 210.59-14.95 217.64-15.1ZM241.49-31.7L241.49-31.7 241.49-2.55 245.54-1.8Q245.74-1 245.54 0.2L245.54 0.2Q242.39 0.05 239.09 0.05L239.09 0.05Q236.79 0.05 232.59 0.15L232.59 0.15Q232.29-0.8 232.59-1.8L232.59-1.8 236.54-2.35Q236.74-5.1 236.74-8.7L236.74-8.7 236.74-37.35 232.64-37.85Q232.44-38.6 232.64-39.75L232.64-39.75Q236.09-40 241.24-40.8L241.24-40.8Q241.69-40.3 241.74-39.8L241.74-39.8Q241.49-38.5 241.49-31.7ZM256.99-9.45L256.99-9.45 255.14-39.95Q256.54-40.55 258.04-40.55L258.04-40.55Q259.44-40.55 260.49-39.95L260.49-39.95 259.19-9.45Q258.64-9.3 258.14-9.3L258.14-9.3Q257.59-9.3 256.99-9.45ZM258.04-5.55L258.04-5.55Q259.39-5.55 260.31-4.67 261.24-3.8 261.24-2.5L261.24-2.5Q261.24-1.2 260.31-0.28 259.39 0.65 258.09 0.65L258.09 0.65Q256.79 0.65 255.86-0.28 254.94-1.2 254.94-2.5L254.94-2.5Q254.94-3.8 255.84-4.67 256.74-5.55 258.04-5.55Z" opacity="1" transform="matrix(1,0,0,1,0,0)" fill="#bbb3db" class="slogan-text-1" data-fill-palette-color="secondary" id="text-1"></path></svg></g></svg></g></svg></g></svg></g><g><svg viewBox="0 0 118.656 125.07268987373206" height="125.07268987373206" width="118.656"><g><svg xmlns="http://www.w3.org/2000/svg" xmlns:xlink="http://www.w3.org/1999/xlink" version="1.1" x="0" y="0" viewBox="13.501 313.00699999999995 221.513 233.49200000000008" enable-background="new 0 285.5 282.5 270.5" xml:space="preserve" height="125.07268987373206" width="118.656" class="icon-icon-0" data-fill-palette-color="accent" id="icon-0"><circle cx="61.973" cy="355.254" r="42" fill="#63855a" data-fill-palette-color="accent"></circle><path d="M219.972 455.99C215.011 448.345 204.792 446.17 197.149 451.133 176.909 464.269 161.7 469.817 151.932 467.623 144.311 465.91 138.174 459.292 128.793 448.635 118.213 436.617 105.045 421.66 83.676 413.57A16.5 16.5 0 0 0 78.969 412.542C61.607 407.362 40.347 405.978 26.739 419.587 23.029 423.297 13.501 430.585 13.501 459.42V546.499H108.476L105.194 471.769C115.759 483.749 126.893 495.821 144.698 499.822 148.461 500.668 152.34 501.093 156.362 501.093 172.954 501.093 191.967 493.837 215.114 478.816 222.758 473.854 224.933 463.635 219.972 455.99" fill="#63855a" data-fill-palette-color="accent"></path><circle cx="224.52" cy="323.501" r="10" fill="#63855a" data-fill-palette-color="accent"></circle><path d="M214.269 379.09S214.287 379.015 214.269 379.09" fill="#63855a" data-fill-palette-color="accent"></path><path d="M214.269 379.09C215.628 373.402 216.562 367.583 217.705 361.85L219.017 367.119C220.159 371.696 227.003 372.818 227.867 367.015 228.464 365.521 228.68 363.742 229.066 362.182 230.21 357.578 231.351 352.977 232.494 348.373 233.903 342.693 225.096 340.508 223.687 346.186L223.421 347.259C222.97 343.816 222.995 341.659 222.296 338.861 220.918 333.33 212.852 331.234 208.413 334.488L209.874 330.074C213.705 318.502 195.756 312.561 191.927 324.134L181.349 356.095C178.269 365.397 190.359 372.749 197.18 365.573 195.295 375.995 193.409 386.419 191.522 396.841 190.927 400.127 188.884 402.16 186.897 404.884L177.616 417.603C175.235 420.868 177.062 425.669 181.035 426.497 183.884 427.091 185.921 425.464 187.472 423.336L197.374 409.769C199.736 406.532 201.728 404.143 202.451 400.149L204.99 386.114 221.789 423.442C224.795 430.124 235.123 425.438 232.133 418.786z" fill="#63855a" data-fill-palette-color="accent"></path></svg></g></svg></g></svg></g></svg></g></svg></g><defs></defs></svg><rect width="320" height="360" fill="none" stroke="none" visibility="hidden"></rect></g></svg></g></svg>